<svg xmlns="http://www.w3.org/2000/svg" width="512" height="512" viewBox="0 0 512 512" version="1.1"><path d="M 209.215 125.750 C 208.650 127.263, 207.925 129.312, 207.604 130.305 C 207.075 131.942, 208.296 147.712, 209.574 155.750 C 210.031 158.627, 210.459 159.003, 213.295 159.022 C 218.164 159.055, 224 162.238, 229.084 167.635 C 231.606 170.311, 242.360 182.400, 252.984 194.500 C 263.607 206.600, 273.305 217.563, 274.535 218.863 L 276.772 221.227 281.872 217.196 C 288.206 212.188, 292.799 210.567, 300.500 210.619 C 308.638 210.675, 313.951 213.264, 322.790 221.482 L 330.080 228.261 337.445 221.119 C 346.108 212.719, 350.172 210.751, 359 210.683 C 370.643 210.592, 372.006 211.599, 405.192 244.797 C 428.852 268.465, 435.302 275.482, 436.942 279.333 C 438.074 281.991, 439 285.013, 439 286.048 C 439 287.083, 439.938 288.432, 441.085 289.045 C 444.243 290.735, 446.953 297.688, 446.978 304.163 C 447.007 311.600, 432.305 458.137, 430.932 464.099 C 429.635 469.729, 425.190 475.318, 419.653 478.279 L 415.500 480.500 328.773 480.782 L 242.047 481.063 242.664 485.782 C 243.003 488.377, 243.904 491.738, 244.666 493.250 L 246.051 496 341.891 496 L 437.730 496 440.440 493.869 C 441.930 492.696, 443.508 490.784, 443.945 489.619 C 445.372 485.822, 480.386 133.649, 479.634 130.665 C 479.241 129.105, 477.747 126.743, 476.314 125.415 L 473.708 123 341.975 123 L 210.243 123 209.215 125.750" stroke="none" fill="#d1e7f8" fill-rule="evenodd"/><path d="M 145.378 123.437 C 140.871 125.399, 139 128.629, 139 134.450 C 139 137.202, 146.905 217.990, 156.568 313.977 C 170.753 454.895, 174.469 489.078, 175.867 491.500 C 176.870 493.237, 179.052 495.003, 181.049 495.694 C 183.663 496.598, 215.053 496.841, 310.500 496.699 C 426.797 496.525, 429.167 496.490, 341.273 496.250 L 246.046 495.990 244.664 493.245 C 243.903 491.735, 243.002 488.365, 242.660 485.756 L 242.040 481.011 326.770 480.750 L 411.500 480.489 308 480.222 C 209.681 479.969, 204.300 479.863, 200.500 478.104 C 195.621 475.845, 191.614 471.716, 189.583 466.853 C 188.578 464.447, 185.311 436.049, 179.978 383.353 C 173 314.409, 172.058 302.918, 173.081 299.238 C 174.195 295.232, 174.051 294.503, 170.689 287.149 C 156.794 256.749, 158.775 219.212, 175.792 190.500 C 185.548 174.039, 197.963 161.855, 207.258 159.621 C 209.787 159.013, 209.974 158.647, 209.506 155.229 C 206.936 136.447, 207.013 128.595, 209.810 124.254 C 210.443 123.271, 238.236 122.953, 341.057 122.750 L 471.500 122.492 310 122.285 C 175.771 122.113, 147.973 122.308, 145.378 123.437 M 228 167.313 C 228 167.485, 229.463 168.948, 231.250 170.563 L 234.500 173.500 231.563 170.250 C 228.825 167.221, 228 166.540, 228 167.313 M 243 184.313 C 243 184.485, 244.463 185.948, 246.250 187.563 L 249.500 190.500 246.563 187.250 C 243.825 184.221, 243 183.540, 243 184.313 M 251 193.313 C 251 193.485, 252.463 194.948, 254.250 196.563 L 257.500 199.500 254.563 196.250 C 251.825 193.221, 251 192.540, 251 193.313 M 266 210.313 C 266 210.485, 267.462 211.948, 269.250 213.563 L 272.500 216.500 269.563 213.250 C 266.825 210.221, 266 209.540, 266 210.313 M 298.250 210.689 C 299.212 210.941, 300.788 210.941, 301.750 210.689 C 302.712 210.438, 301.925 210.232, 300 210.232 C 298.075 210.232, 297.288 210.438, 298.250 210.689 M 279.277 219.168 C 277.392 221.053, 276.874 221.158, 275.305 219.972 C 273.578 218.669, 273.576 218.693, 275.256 220.526 C 276.979 222.405, 277.065 222.390, 279.734 219.721 C 281.230 218.224, 282.227 217, 281.949 217 C 281.672 217, 280.469 217.975, 279.277 219.168 M 404.500 245 C 419.893 260.400, 432.712 273, 432.987 273 C 433.262 273, 420.893 260.400, 405.500 245 C 390.107 229.600, 377.288 217, 377.013 217 C 376.738 217, 389.107 229.600, 404.500 245 M 324 223.500 C 326.987 226.525, 329.657 229, 329.932 229 C 330.207 229, 327.987 226.525, 325 223.500 C 322.013 220.475, 319.343 218, 319.068 218 C 318.793 218, 321.013 220.475, 324 223.500 M 264.993 255.750 L 238.500 282.500 265.250 256.007 C 290.108 231.388, 292.451 229, 291.743 229 C 291.602 229, 279.564 241.037, 264.993 255.750 M 367 229.257 C 367 229.398, 379.262 241.661, 394.250 256.507 L 421.500 283.500 394.507 256.250 C 369.423 230.927, 367 228.550, 367 229.257 M 424.437 474.250 L 421.500 477.500 424.750 474.563 C 427.779 471.825, 428.460 471, 427.687 471 C 427.515 471, 426.052 472.462, 424.437 474.250" stroke="none" fill="#b9d8f4" fill-rule="evenodd"/><path d="M 147.750 15.706 C 148.988 15.944, 151.012 15.944, 152.250 15.706 C 153.488 15.467, 152.475 15.272, 150 15.272 C 147.525 15.272, 146.512 15.467, 147.750 15.706 M 148.750 20.706 C 149.988 20.944, 152.012 20.944, 153.250 20.706 C 154.488 20.467, 153.475 20.272, 151 20.272 C 148.525 20.272, 147.512 20.467, 148.750 20.706 M 31.286 124.500 C 31.294 127.250, 31.488 128.256, 31.718 126.736 C 31.947 125.216, 31.941 122.966, 31.704 121.736 C 31.467 120.506, 31.279 121.750, 31.286 124.500 M 202.453 180.250 L 198.500 184.500 202.750 180.547 C 205.088 178.373, 207 176.460, 207 176.297 C 207 175.540, 206.129 176.298, 202.453 180.250 M 208.946 183.750 L 205.500 187.500 209.250 184.054 C 212.740 180.846, 213.460 180, 212.696 180 C 212.529 180, 210.842 181.688, 208.946 183.750 M 312.958 234.250 C 317.102 238.665, 318 239.459, 318 238.708 C 318 238.548, 315.863 236.410, 313.250 233.958 L 308.500 229.500 312.958 234.250 M 176.310 244.500 C 176.315 247.800, 176.502 249.029, 176.725 247.232 C 176.947 245.435, 176.943 242.735, 176.715 241.232 C 176.486 239.729, 176.304 241.200, 176.310 244.500 M 279.232 293 C 279.232 294.925, 279.438 295.712, 279.689 294.750 C 279.941 293.788, 279.941 292.212, 279.689 291.250 C 279.438 290.288, 279.232 291.075, 279.232 293 M 242.500 302 C 245.766 305.300, 248.662 308, 248.937 308 C 249.212 308, 246.766 305.300, 243.500 302 C 240.234 298.700, 237.338 296, 237.063 296 C 236.788 296, 239.234 298.700, 242.500 302 M 190.223 299.557 C 188.462 300.790, 188 302.089, 188.002 305.807 C 188.003 308.388, 191.378 343.950, 195.502 384.834 C 199.626 425.718, 203 459.580, 203 460.084 C 203 460.588, 203.900 461.900, 205 463 C 206.974 464.974, 208.333 465, 309.500 465 C 408.701 465, 412.061 464.939, 413.891 463.109 C 414.954 462.046, 416.056 459.090, 416.407 456.359 C 417.252 449.778, 430.999 312.880, 431 311.039 C 431 310.235, 418.063 322.434, 402.250 338.148 C 376.995 363.245, 372.901 366.918, 368.572 368.359 C 356.973 372.221, 347.769 369.463, 336.373 358.713 L 329.481 352.211 322.610 358.721 C 313.540 367.313, 306.948 370.365, 298.667 369.806 C 295.275 369.577, 290.700 368.540, 288.500 367.502 C 284.015 365.385, 254.653 337.099, 252.341 332.667 C 251.189 330.459, 251.100 329.152, 251.937 326.752 C 252.796 324.287, 252.705 323.331, 251.481 321.979 C 250.595 320.999, 250.233 319.556, 250.621 318.545 C 251.053 317.419, 250.328 317.763, 248.579 319.512 C 244.338 323.753, 240.953 322.522, 232.315 313.598 C 228.364 309.516, 224.192 304.336, 223.045 302.088 L 220.959 298 206.702 298 C 195.417 298, 191.982 298.324, 190.223 299.557 M 392.993 325.750 L 366.500 352.500 393.250 326.007 C 418.108 301.388, 420.451 299, 419.743 299 C 419.602 299, 407.564 311.038, 392.993 325.750 M 282.910 304.832 C 283.450 305.840, 284.676 307.302, 285.637 308.082 C 286.717 308.960, 286.475 308.261, 285.003 306.250 C 282.377 302.662, 281.392 301.995, 282.910 304.832 M 279 338.500 C 286.961 346.475, 293.699 353, 293.974 353 C 294.249 353, 287.961 346.475, 280 338.500 C 272.039 330.525, 265.301 324, 265.026 324 C 264.751 324, 271.039 330.525, 279 338.500 M 311.469 347.250 L 305.500 353.500 311.750 347.531 C 317.556 341.987, 318.458 341, 317.719 341 C 317.564 341, 314.751 343.813, 311.469 347.250" stroke="none" fill="#ff5023" fill-rule="evenodd"/><path d="M 134 16.139 C 91.253 20.104, 53.787 48.778, 38.592 89.158 C 27.005 119.949, 30.326 157.883, 47.090 186.235 C 55.142 199.854, 70.403 216.302, 77.486 218.995 C 79.021 219.578, 80.408 219.926, 80.567 219.766 C 80.727 219.607, 77.940 217.007, 74.376 213.988 C 49.733 193.122, 36 163.066, 36 130 C 36 105.630, 43.329 83.630, 57.883 64.316 C 94.488 15.738, 163.059 5.862, 211.635 42.173 C 215.262 44.885, 218.436 46.897, 218.689 46.645 C 220.121 45.213, 215.092 39.538, 208.464 35.104 C 186.264 20.256, 160.461 13.684, 134 16.139 M 201.860 181.750 C 194.102 189.700, 190.156 195.358, 185.439 205.292 C 179.415 217.975, 177.838 224.912, 177.318 241 C 176.895 254.106, 177.088 256.414, 179.327 265 C 182.702 277.940, 185.563 284.382, 187.591 283.604 C 188.456 283.272, 190.413 283, 191.940 283 L 194.717 283 191.305 274.504 C 186.069 261.463, 184.731 253.572, 185.285 239 C 186.142 216.453, 193.669 199.294, 209.762 183.201 C 214.632 178.331, 215.881 176.539, 214.857 175.890 C 211.377 173.685, 208.435 175.012, 201.860 181.750 M 250.534 246.868 C 250.828 247.162, 245.541 253.049, 238.784 259.951 L 226.500 272.500 239.750 259.514 C 247.038 252.372, 253 246.485, 253 246.431 C 253 246.377, 252.325 246.333, 251.500 246.333 C 250.675 246.333, 250.240 246.574, 250.534 246.868 M 217 282 L 212.500 282.700 216.691 282.850 C 218.996 282.932, 221.160 282.550, 221.500 282 C 221.840 281.450, 221.979 281.068, 221.809 281.150 C 221.639 281.233, 219.475 281.615, 217 282 M 236.566 293.250 C 236.951 294.488, 240.291 298.695, 243.987 302.599 C 250.990 309.997, 252.585 313.245, 251.136 317.162 C 250.528 318.805, 250.735 320.098, 251.842 321.566 C 253.252 323.435, 253.677 323.509, 256.093 322.304 C 258.119 321.293, 259.468 321.227, 261.594 322.036 C 263.143 322.625, 271.450 330.058, 280.054 338.553 C 295.296 353.604, 295.806 354, 299.946 354 C 303.831 354, 304.789 353.426, 311.136 347.299 L 318.077 340.597 300.531 323.031 C 285.827 308.310, 282.661 304.614, 280.992 300.221 C 279.896 297.338, 279 294.083, 279 292.989 C 279 291.065, 278.295 291, 257.433 291 L 235.865 291 236.566 293.250" stroke="none" fill="#ffd422" fill-rule="evenodd"/><path d="M 104 45.882 C 82.008 56.912, 64.639 76.462, 56.811 98.996 C 54.152 106.650, 52.054 117, 53.162 117 C 53.667 117, 69.643 119.044, 88.664 121.543 C 107.685 124.042, 123.361 125.954, 123.501 125.793 C 123.640 125.632, 124.691 123.642, 125.835 121.372 C 126.980 119.101, 130.022 115.390, 132.595 113.125 L 137.275 109.006 124.387 76.330 C 117.299 58.359, 111.050 43.535, 110.500 43.389 C 109.950 43.243, 107.025 44.365, 104 45.882 M 227.059 251.615 C 213.616 254.604, 202.482 257.185, 202.316 257.351 C 201.643 258.024, 206.247 269.886, 209.360 275.500 C 212.506 281.175, 212.909 281.517, 216.795 281.805 C 220.735 282.098, 220.993 281.935, 223.097 277.805 C 224.304 275.437, 231.379 267.313, 238.821 259.750 C 246.262 252.188, 252.159 246.041, 251.925 246.091 C 251.691 246.141, 240.501 248.627, 227.059 251.615" stroke="none" fill="#ffde55" fill-rule="evenodd"/><path d="M 132.269 36.873 C 129.941 37.289, 127.764 37.902, 127.431 38.236 C 127.098 38.569, 132.827 54.168, 140.162 72.900 L 153.500 106.958 168.576 106.979 C 183.443 107, 183.684 106.965, 186.040 104.458 C 188.058 102.309, 188.240 101.614, 187.214 99.971 C 185.214 96.768, 185.822 92.541, 188.879 88.400 C 190.463 86.255, 195.845 79.335, 200.839 73.021 L 209.919 61.543 207.826 59.315 C 201.297 52.365, 182.304 42.283, 169.500 38.970 C 160.812 36.722, 139.745 35.536, 132.269 36.873 M 52.205 140.750 C 54.374 161.151, 63.381 180.546, 77.450 195.118 C 83.385 201.264, 90.783 207.622, 92.634 208.167 C 93.256 208.350, 101.060 199.275, 109.976 188 L 126.189 167.500 125.571 162.128 C 125.232 159.174, 124.673 153.436, 124.330 149.378 C 123.964 145.045, 123.251 141.999, 122.603 141.998 C 121.996 141.996, 106.200 139.977, 87.500 137.511 C 68.800 135.044, 53.023 133.020, 52.440 133.013 C 51.714 133.004, 51.640 135.440, 52.205 140.750 M 220.388 195.191 C 208.143 207.829, 202.743 219.508, 200.709 237.750 C 200.509 239.537, 200.606 241, 200.923 241 C 201.240 240.999, 214.708 238.074, 230.851 234.500 C 246.994 230.925, 260.410 228, 260.664 228 C 260.919 228, 254.686 220.733, 246.813 211.850 C 238.941 202.968, 231.150 194.167, 229.500 192.292 L 226.500 188.882 220.388 195.191" stroke="none" fill="#ffeb99" fill-rule="evenodd"/><path d="M 134 16.139 C 91.253 20.104, 53.787 48.778, 38.592 89.158 C 27.005 119.949, 30.326 157.883, 47.090 186.235 C 55.142 199.854, 70.403 216.302, 77.486 218.995 C 79.021 219.578, 80.408 219.926, 80.567 219.766 C 80.727 219.607, 77.940 217.007, 74.376 213.988 C 49.733 193.122, 36 163.066, 36 130 C 36 105.630, 43.329 83.630, 57.883 64.316 C 94.488 15.738, 163.059 5.862, 211.635 42.173 C 215.262 44.885, 218.436 46.897, 218.689 46.645 C 220.121 45.213, 215.092 39.538, 208.464 35.104 C 186.264 20.256, 160.461 13.684, 134 16.139 M 201.860 181.750 C 194.102 189.700, 190.156 195.358, 185.439 205.292 C 179.415 217.975, 177.838 224.912, 177.318 241 C 176.895 254.106, 177.088 256.414, 179.327 265 C 182.702 277.940, 185.563 284.382, 187.591 283.604 C 188.456 283.272, 190.413 283, 191.940 283 L 194.717 283 191.305 274.504 C 186.069 261.463, 184.731 253.572, 185.285 239 C 186.142 216.453, 193.669 199.294, 209.762 183.201 C 214.632 178.331, 215.881 176.539, 214.857 175.890 C 211.377 173.685, 208.435 175.012, 201.860 181.750 M 250.534 246.868 C 250.828 247.162, 245.541 253.049, 238.784 259.951 L 226.500 272.500 239.750 259.514 C 247.038 252.372, 253 246.485, 253 246.431 C 253 246.377, 252.325 246.333, 251.500 246.333 C 250.675 246.333, 250.240 246.574, 250.534 246.868 M 217 282 L 212.500 282.700 216.691 282.850 C 218.996 282.932, 221.160 282.550, 221.500 282 C 221.840 281.450, 221.979 281.068, 221.809 281.150 C 221.639 281.233, 219.475 281.615, 217 282 M 236.566 293.250 C 236.951 294.488, 240.291 298.695, 243.987 302.599 C 250.990 309.997, 252.585 313.245, 251.136 317.162 C 250.528 318.805, 250.735 320.098, 251.842 321.566 C 253.252 323.435, 253.677 323.509, 256.093 322.304 C 258.119 321.293, 259.468 321.227, 261.594 322.036 C 263.143 322.625, 271.450 330.058, 280.054 338.553 C 295.296 353.604, 295.806 354, 299.946 354 C 303.831 354, 304.789 353.426, 311.136 347.299 L 318.077 340.597 300.531 323.031 C 285.827 308.310, 282.661 304.614, 280.992 300.221 C 279.896 297.338, 279 294.083, 279 292.989 C 279 291.065, 278.295 291, 257.433 291 L 235.865 291 236.566 293.250" stroke="none" fill="#ffd422" fill-rule="evenodd"/><path d="M 132.269 36.873 C 129.941 37.289, 127.764 37.902, 127.431 38.236 C 127.098 38.569, 132.827 54.168, 140.162 72.900 L 153.500 106.958 168.576 106.979 C 183.443 107, 183.684 106.965, 186.040 104.458 C 188.058 102.309, 188.240 101.614, 187.214 99.971 C 185.214 96.768, 185.822 92.541, 188.879 88.400 C 190.463 86.255, 195.845 79.335, 200.839 73.021 L 209.919 61.543 207.826 59.315 C 201.297 52.365, 182.304 42.283, 169.500 38.970 C 160.812 36.722, 139.745 35.536, 132.269 36.873 M 52.205 140.750 C 54.374 161.151, 63.381 180.546, 77.450 195.118 C 83.385 201.264, 90.783 207.622, 92.634 208.167 C 93.256 208.350, 101.060 199.275, 109.976 188 L 126.189 167.500 125.571 162.128 C 125.232 159.174, 124.673 153.436, 124.330 149.378 C 123.964 145.045, 123.251 141.999, 122.603 141.998 C 121.996 141.996, 106.200 139.977, 87.500 137.511 C 68.800 135.044, 53.023 133.020, 52.440 133.013 C 51.714 133.004, 51.640 135.440, 52.205 140.750 M 220.388 195.191 C 208.143 207.829, 202.743 219.508, 200.709 237.750 C 200.509 239.537, 200.606 241, 200.923 241 C 201.240 240.999, 214.708 238.074, 230.851 234.500 C 246.994 230.925, 260.410 228, 260.664 228 C 260.919 228, 254.686 220.733, 246.813 211.850 C 238.941 202.968, 231.150 194.167, 229.500 192.292 L 226.500 188.882 220.388 195.191" stroke="none" fill="#ffeb99" fill-rule="evenodd"/><path d="M 297 226.756 C 294.391 227.207, 244.409 275.922, 238.882 283.400 C 233.905 290.135, 233.523 290, 257.500 290 C 278.196 290, 279 289.927, 279 288.038 C 279 286.958, 279.902 283.664, 281.005 280.717 C 282.587 276.487, 284.980 273.427, 292.370 266.180 C 301.878 256.855, 303.915 255.814, 308.182 258.098 C 311.433 259.837, 313.585 257.117, 312.170 253.058 C 310.836 249.231, 311.421 247.425, 315.347 243.244 L 318.404 239.988 313.952 235.413 C 306.443 227.696, 302.679 225.774, 297 226.756" stroke="none" fill="#ddfffb" fill-rule="evenodd"/><path d="M 356.059 226.735 C 354.619 227.003, 347.188 233.506, 337.935 242.595 C 324.914 255.385, 321.755 258, 319.326 258 C 317.717 258, 315.871 257.471, 315.224 256.824 C 313.378 254.978, 309.743 258.652, 311.032 261.060 C 313.329 265.353, 312.179 268.387, 305.924 274.531 C 299.123 281.212, 296.591 284.442, 295.564 287.750 L 294.865 290 358.933 290 C 402.998 290, 423 289.672, 423 288.950 C 423 288.373, 422.361 286.686, 421.579 285.200 C 419.522 281.291, 364.651 227, 362.757 227 C 361.881 227, 360.564 226.838, 359.832 226.640 C 359.099 226.443, 357.402 226.485, 356.059 226.735" stroke="none" fill="#ffffff" fill-rule="evenodd"/><path d="M 209.215 125.750 C 208.650 127.263, 207.925 129.312, 207.604 130.305 C 207.075 131.942, 208.296 147.712, 209.574 155.750 C 210.031 158.627, 210.459 159.003, 213.295 159.022 C 218.164 159.055, 224 162.238, 229.084 167.635 C 231.606 170.311, 242.360 182.400, 252.984 194.500 C 263.607 206.600, 273.305 217.563, 274.535 218.863 L 276.772 221.227 281.872 217.196 C 288.206 212.188, 292.799 210.567, 300.500 210.619 C 308.638 210.675, 313.951 213.264, 322.790 221.482 L 330.080 228.261 337.445 221.119 C 346.108 212.719, 350.172 210.751, 359 210.683 C 370.643 210.592, 372.006 211.599, 405.192 244.797 C 428.852 268.465, 435.302 275.482, 436.942 279.333 C 438.074 281.991, 439 285.013, 439 286.048 C 439 287.083, 439.938 288.432, 441.085 289.045 C 444.243 290.735, 446.953 297.688, 446.978 304.163 C 447.007 311.600, 432.305 458.137, 430.932 464.099 C 429.635 469.729, 425.190 475.318, 419.653 478.279 L 415.500 480.500 328.773 480.782 L 242.047 481.063 242.664 485.782 C 243.003 488.377, 243.904 491.738, 244.666 493.250 L 246.051 496 341.891 496 L 437.730 496 440.440 493.869 C 441.930 492.696, 443.508 490.784, 443.945 489.619 C 445.372 485.822, 480.386 133.649, 479.634 130.665 C 479.241 129.105, 477.747 126.743, 476.314 125.415 L 473.708 123 341.975 123 L 210.243 123 209.215 125.750" stroke="none" fill="#d1e7f8" fill-rule="evenodd"/><path d="M 128.500 0.592 C 127.400 0.861, 122.900 1.770, 118.500 2.611 C 89.052 8.239, 59.554 26.956, 41.532 51.449 C 30.803 66.030, 24.446 79.350, 19.859 96.863 C 15.856 112.144, 14.817 134.209, 17.390 149.300 C 22.388 178.625, 35.963 203.842, 57.337 223.510 C 61.812 227.628, 66.916 231.681, 68.678 232.518 C 73.453 234.783, 79.940 235.700, 84.955 234.818 C 93.183 233.370, 97.466 229.633, 112.002 211.214 C 119.505 201.706, 126.287 193.285, 127.072 192.500 C 128.309 191.263, 130.524 211.210, 143.654 341.880 C 158.166 486.295, 158.916 492.901, 161.355 497.714 C 164.198 503.324, 168.518 507.406, 174.500 510.133 C 178.305 511.867, 184.886 511.957, 309.554 511.978 L 440.607 512 445.801 509.412 C 452.382 506.132, 457.677 499.980, 459.472 493.527 C 460.938 488.259, 496.059 141.251, 496.021 132.410 C 495.979 122.317, 487.948 111.441, 478.101 108.140 C 475.613 107.306, 431.587 107, 313.959 107 L 153.217 107 151.500 102.750 C 143.374 82.644, 125.989 37.678, 126.243 37.424 C 126.419 37.248, 130.648 36.694, 135.641 36.193 C 161.959 33.553, 185.678 40.753, 206.705 57.765 L 210.909 61.166 199.570 75.433 C 186.281 92.153, 185.661 93.180, 186.513 97.057 C 187.990 103.782, 194.814 104.880, 200.146 99.250 C 206.720 92.310, 230.298 61.538, 232.135 57.500 C 234.371 52.587, 234.574 42.618, 232.537 37.743 C 230.437 32.717, 226.804 28.744, 219.712 23.721 C 206.442 14.322, 192.013 7.718, 175.085 3.299 C 167.032 1.196, 162.703 0.740, 148 0.449 C 138.375 0.258, 129.600 0.322, 128.500 0.592 M 131.286 16.099 C 98.811 19.880, 69.304 37.888, 50.632 65.322 C 40.638 80.004, 34.237 97.734, 31.854 117.336 C 28.238 147.079, 39.626 182.004, 60.335 204.681 C 67.660 212.702, 76.723 220.006, 79.302 219.967 C 81.470 219.934, 81.466 219.906, 79 217.903 C 77.625 216.787, 73.012 212.445, 68.750 208.255 C 53.590 193.355, 43.427 174.997, 38.439 153.500 C 35.977 142.890, 35.849 117.707, 38.205 107.500 C 45.600 75.466, 66.027 48.343, 93.748 33.749 C 110.879 24.731, 126.695 20.825, 146 20.846 C 170.980 20.873, 191.569 27.707, 211.750 42.672 C 217.627 47.030, 219 47.690, 219 46.159 C 219 43.225, 215.746 39.765, 208.318 34.801 C 185.024 19.235, 158.877 12.887, 131.286 16.099 M 103.974 45.309 C 86.787 53.712, 70.011 70.132, 61.602 86.782 C 56.712 96.463, 50.991 115.325, 52.490 116.824 C 52.783 117.116, 67.755 119.276, 85.761 121.624 C 103.768 123.972, 119.724 126.062, 121.220 126.269 C 123.644 126.604, 124.225 126.060, 126.579 121.250 C 128.247 117.840, 130.743 114.750, 133.359 112.855 C 135.637 111.205, 137.500 109.522, 137.500 109.115 C 137.500 107.769, 111.510 42.009, 111 42.065 C 110.725 42.094, 107.563 43.555, 103.974 45.309 M 146.374 122.689 C 143.353 123.282, 139.957 127.237, 139.107 131.153 C 138.025 136.134, 173.454 486.477, 175.476 490.805 C 178.533 497.348, 171.014 497, 309.500 497 C 445.375 497, 439.845 497.218, 443.449 491.719 C 444.702 489.805, 448.959 450.444, 462.951 311.385 C 472.796 213.548, 480.608 132.274, 480.313 130.774 C 479.599 127.148, 475.703 123.391, 471.861 122.622 C 468.467 121.943, 149.841 122.009, 146.374 122.689 M 51.393 138.791 C 53.510 160.302, 62.742 180.571, 77.360 195.798 C 82.894 201.563, 91.890 209, 93.329 209 C 93.823 209, 106.317 193.536, 121.607 174 L 126.694 167.500 125.335 155.071 C 124.587 148.236, 123.761 142.427, 123.498 142.164 C 123.235 141.901, 108.278 139.758, 90.260 137.402 C 72.242 135.045, 55.977 132.884, 54.116 132.600 L 50.732 132.082 51.393 138.791 M 205.764 159.996 C 201.014 161.426, 196.373 164.847, 190.136 171.514 C 160.943 202.721, 153.507 246.679, 170.644 286.736 C 173.897 294.340, 174.089 295.339, 173.147 299.736 C 172.306 303.657, 173.531 318.474, 180.068 383.500 C 184.436 426.949, 188.505 464, 189.111 465.835 C 190.641 470.474, 195.728 475.971, 200.491 478.135 C 204.286 479.859, 210.093 479.957, 309.282 479.978 C 423.973 480.002, 417.904 480.307, 424.342 474.197 C 430.642 468.217, 430.342 470.065, 438.997 384.035 C 443.768 336.604, 446.796 302.351, 446.410 300.176 C 445.664 295.977, 443.061 291.299, 440.058 288.760 C 438.926 287.803, 438 285.996, 438 284.745 C 438 283.494, 437.062 280.677, 435.915 278.485 C 433.273 273.436, 377.975 217.748, 372.175 214.296 C 369.063 212.444, 365.941 211.586, 361.041 211.235 C 352.050 210.592, 345.745 213.417, 336.388 222.282 L 329.515 228.793 322.491 222.121 C 314.359 214.397, 309.582 211.820, 302.233 211.197 C 294.821 210.567, 288.520 212.639, 282.204 217.784 C 277.700 221.453, 276.562 221.975, 275.514 220.853 C 274.819 220.109, 265.355 209.375, 254.481 197 C 226.663 165.341, 223.530 162.240, 217.568 160.467 C 212.140 158.852, 209.864 158.761, 205.764 159.996 M 207.371 175.920 C 203.539 178.251, 193.678 189.860, 189.145 197.378 C 174.847 221.093, 172.489 254.730, 183.447 278.665 L 185.814 283.835 190.157 283.280 C 192.546 282.975, 194.616 282.633, 194.759 282.520 C 194.901 282.408, 193.722 279.432, 192.139 275.908 C 187.992 266.678, 185.958 257.906, 185.320 246.500 C 184.009 223.046, 192.292 201.552, 209.304 184.263 C 213.725 179.769, 216.060 176.684, 215.463 176.125 C 213.362 174.161, 210.388 174.086, 207.371 175.920 M 220.283 194.284 C 212.130 202.774, 206.872 211.165, 203.712 220.725 C 200.483 230.494, 199.013 242.279, 201.110 241.585 C 201.874 241.332, 215.325 238.346, 231 234.949 C 246.675 231.552, 259.867 228.434, 260.315 228.021 C 260.927 227.457, 242.589 205.789, 227.060 188.729 C 226.674 188.305, 223.624 190.804, 220.283 194.284 M 292.400 228.898 C 284.767 234.569, 238.116 282.395, 236.572 286.132 C 234.352 291.507, 235.855 295.062, 243.955 303.589 C 252.009 312.068, 252.884 315.207, 248.434 319.657 C 244.352 323.739, 240.861 322.427, 232.315 313.598 C 228.364 309.516, 224.192 304.336, 223.045 302.088 L 220.959 298 206.702 298 C 189.439 298, 187.999 298.601, 188.002 305.807 C 188.003 308.388, 191.378 343.950, 195.502 384.834 C 199.626 425.718, 203 459.580, 203 460.084 C 203 460.588, 203.900 461.900, 205 463 C 206.974 464.974, 208.333 465, 309.500 465 C 408.701 465, 412.061 464.939, 413.891 463.109 C 414.954 462.046, 416.056 459.090, 416.407 456.359 C 417.252 449.778, 430.999 312.880, 431 311.039 C 431 310.235, 418.063 322.434, 402.250 338.148 C 376.995 363.245, 372.901 366.918, 368.572 368.359 C 356.969 372.222, 347.711 369.446, 336.373 358.704 L 329.519 352.211 322.609 358.730 C 313.496 367.327, 306.931 370.364, 298.667 369.806 C 295.275 369.577, 290.700 368.540, 288.500 367.502 C 284.067 365.410, 254.666 337.123, 252.388 332.759 C 249.660 327.531, 253.224 322, 259.321 322 C 261.691 322, 265.049 324.804, 278.399 337.931 C 287.810 347.184, 295.710 354.140, 297.247 354.526 C 301.597 355.618, 306.236 353.330, 312.492 347.008 L 318.406 341.032 301.891 324.266 C 281.012 303.070, 280.500 302.258, 280.500 290.372 C 280.500 281.408, 280.570 281.142, 284.370 275.624 C 286.499 272.533, 291.128 267.303, 294.657 264.002 C 299.824 259.168, 301.717 258, 304.382 258 C 309.616 258, 313.265 263.695, 310.926 268.212 C 310.274 269.471, 306.424 273.936, 302.370 278.135 C 295.297 285.462, 295 285.964, 295 290.563 L 295 295.355 323.700 324.166 C 343.428 343.970, 353.432 353.318, 355.703 354.067 C 362.618 356.349, 363.748 355.514, 392.773 326.653 C 410.180 309.346, 420.765 298.051, 422.032 295.434 C 425.787 287.676, 425.597 287.400, 395.609 257.190 C 380.699 242.170, 367.008 228.952, 365.183 227.817 C 362.682 226.262, 360.859 225.890, 357.769 226.304 C 354.095 226.797, 352.159 228.359, 339.085 241.378 C 331.063 249.366, 323.356 256.327, 321.957 256.848 C 320.201 257.501, 318.467 257.395, 316.356 256.508 C 311.075 254.287, 310.505 249.173, 314.959 243.962 C 316.587 242.058, 317.937 239.983, 317.959 239.350 C 318.014 237.813, 307.258 228.048, 304.251 226.905 C 300.057 225.311, 296.400 225.926, 292.400 228.898 M 225.563 251.423 C 212.027 254.491, 202.454 257.139, 202.205 257.884 C 201.583 259.751, 205.685 270.355, 209.638 277.101 C 212.928 282.713, 213.287 283, 217.028 283 C 220.647 283, 221.131 282.662, 223.123 278.750 C 224.314 276.413, 231.603 268.087, 239.321 260.250 C 250.740 248.656, 252.902 246.021, 250.927 246.112 C 249.592 246.173, 238.178 248.563, 225.563 251.423" stroke="none" fill="#050505" fill-rule="evenodd"/><path d="M 246.195 290.746 C 252.077 290.922, 261.977 290.923, 268.195 290.747 C 274.413 290.571, 269.600 290.427, 257.500 290.426 C 245.400 290.425, 240.313 290.569, 246.195 290.746 M 295 291.099 C 295 294.731, 300.935 301.496, 325.777 326.183 C 346.010 346.289, 354.277 353.873, 356.374 354.251 C 362.777 355.407, 364.693 353.888, 394.273 324.193 C 417.577 300.800, 423 294.850, 423 292.678 L 423 290 359 290 C 313.161 290, 295 290.312, 295 291.099" stroke="none" fill="#deded0" fill-rule="evenodd"/></svg>